[2026-03-03T20:12:14.893Z] Pipeline started.
[2026-03-03T20:12:15.813Z] Downloading YouTube: https://youtube.com/shorts/sbqu-Bw61Rs?si=z9qhsKAb4Y7KfkiX
[2026-03-03T20:12:35.468Z] ElevenLabs TTS seg 0 [21m00Tcm4TlvDq8ikWAM]: "Изменить свой образ жизни?"
[2026-03-03T20:12:36.886Z] Seg 0 done (29301 bytes) ✅
[2026-03-03T20:12:37.140Z] ElevenLabs TTS seg 1 [21m00Tcm4TlvDq8ikWAM]: "Ты не выглядишь так, как будто покупаешь очень дор"
[2026-03-03T20:12:38.411Z] Seg 1 done (56050 bytes) ✅
[2026-03-03T20:12:38.673Z] ElevenLabs TTS seg 2 [21m00Tcm4TlvDq8ikWAM]: "Нет, я не покупаю очень дорогую одежду."
[2026-03-03T20:12:39.817Z] Seg 2 done (41839 bytes) ✅
[2026-03-03T20:12:40.079Z] ElevenLabs TTS seg 3 [21m00Tcm4TlvDq8ikWAM]: "Ты покупаешь вещи? Ты покупаешь вещи, которые бы.."
[2026-03-03T20:12:41.383Z] Seg 3 done (54378 bytes) ✅
[2026-03-03T20:12:41.618Z] ElevenLabs TTS seg 4 [21m00Tcm4TlvDq8ikWAM]: "Нет, у меня маленькая, типа, однокомнатная квартир"
[2026-03-03T20:12:42.912Z] Seg 4 done (62737 bytes) ✅
[2026-03-03T20:12:43.163Z] ElevenLabs TTS seg 5 [21m00Tcm4TlvDq8ikWAM]: "Вот где я живу."
[2026-03-03T20:12:44.490Z] Seg 5 done (20942 bytes) ✅
[2026-03-03T20:12:44.738Z] Running FFmpeg: C:\Users\fullm\Downloads\dubverse-saas\backend\node_modules\ffmpeg-static\ffmpeg.exe -i C:\Users\fullm\Downloads\dubverse-saas\tmp\uploads\6f00aa69-7eeb-4f9c-8921-4f94841a1ce8\audio.mp3 -i C:\Users\fullm\Downloads\dubverse-saas\tmp\uploads\6f00aa69-7eeb-4f9c-8921-4f94841a1ce8\segments\seg_0.mp3 -i C:\Users\fullm\Downloads\dubverse-saas\tmp\uploads\6f00aa69-7eeb-4f9c-8921-4f94841a1ce8\segments\seg_1.mp3 -i C:\Users\fullm\Downloads\dubverse-saas\tmp\uploads\6f00aa69-7eeb-4f9c-8921-4f94841a1ce8\segments\seg_2.mp3 -i C:\Users\fullm\Downloads\dubverse-saas\tmp\uploads\6f00aa69-7eeb-4f9c-8921-4f94841a1ce8\segments\seg_3.mp3 -i C:\Users\fullm\Downloads\dubverse-saas\tmp\uploads\6f00aa69-7eeb-4f9c-8921-4f94841a1ce8\segments\seg_4.mp3 -i C:\Users\fullm\Downloads\dubverse-saas\tmp\uploads\6f00aa69-7eeb-4f9c-8921-4f94841a1ce8\segments\seg_5.mp3 -filter_complex [1:a]aformat=sample_rates=44100:channel_layouts=stereo,adelay=0|0[s0];[2:a]aformat=sample_rates=44100:channel_layouts=stereo,adelay=1200|1200[s1];[3:a]aformat=sample_rates=44100:channel_layouts=stereo,adelay=4000|4000[s2];[4:a]aformat=sample_rates=44100:channel_layouts=stereo,adelay=6200|6200[s3];[5:a]aformat=sample_rates=44100:channel_layouts=stereo,adelay=9000|9000[s4];[6:a]aformat=sample_rates=44100:channel_layouts=stereo,adelay=13700|13700[s5];[0:a]aformat=sample_rates=44100:channel_layouts=stereo,volume=0.12[bg];[bg][s0][s1][s2][s3][s4][s5]amix=inputs=7:duration=first:dropout_transition=2,volume=7[mixed];[mixed]loudnorm=I=-23:TP=-1.5:LRA=11[out] -map [out] -acodec libmp3lame -ar 44100 -b:a 192k -y C:\Users\fullm\Downloads\dubverse-saas\tmp\uploads\6f00aa69-7eeb-4f9c-8921-4f94841a1ce8\dubbed_audio.mp3
[2026-03-03T20:12:45.000Z] FFmpeg Err: Input #0, mp3, from 'C:\Users\fullm\Downloads\dubverse-saas\tmp\uploads\6f00aa69-7eeb-4f9c-8921-4f94841a1ce8\audio.mp3':
  Metadata:
    major_brand     : mp42
    minor_version   : 0
    compatible_brands: isommp42
    encoder         : Lavf60.16.100
  Duration: 00:00:15.33, start: 0.025057, bitrate: 128 kb/s
  Stream #0:0: Audio: mp3, 44100 Hz, stereo, fltp, 128 kb/s
    Metadata:
      encoder         : Lavc60.31

[2026-03-03T20:12:45.004Z] FFmpeg Err: Input #1, mp3, from 'C:\Users\fullm\Downloads\dubverse-saas\tmp\uploads\6f00aa69-7eeb-4f9c-8921-4f94841a1ce8\segments\seg_0.mp3':
  Metadata:
    encoder         : Lavf60.16.100
  Duration: 00:00:01.80, start: 0.025057, bitrate: 65 kb/s
  Stream #1:0: Audio: mp3, 44100 Hz, mono, fltp, 64 kb/s
Input #2, mp3, from 'C:\Users\fullm\Downloads\dubverse-saas\tmp\uploads\6f00aa69-7eeb-4f9c-8921-4f94841a1ce8\segments\seg_1.mp3':
  Metadata:
    encoder         : Lavf60.16.100
  Duration: 00:00:03.47, start: 0.025057, bitrate: 64 kb/s
  Stream #2:0: Audio: mp3, 44100 Hz, mono, fltp, 64 kb/s
Input #3, mp3, from 'C:\Users\fullm\Downloads\dubverse-saas\tmp\uploads\6f00aa69-7eeb-4f9c-8921-4f94841a1ce8\segments\seg_2.mp3':
  Metadata:
    encoder         : Lavf60.16.100
  Duration: 00:00:02.59, start: 0.025057, bitrate: 64 kb/s
  Stream #3:0: Audio: mp3, 44100 Hz, mono, fltp, 64 kb/s
Input #4, mp3, from 'C:\Users\fullm\Downloads\dubverse-saas\tmp\uploads\6f00aa69-7eeb-4f9c-8921-4f94841a1ce8\segments\seg_3.mp3':
  Metadata:
    encoder         : Lavf60.16.100
  Duration: 00:00:03.37, start: 0.025057, bitrate: 64 kb/s
  Stream #4:0: Audio: mp3, 44100 Hz, mono, fltp, 64 kb/s

[2026-03-03T20:12:45.008Z] FFmpeg Err: Input #5, mp3, from 'C:\Users\fullm\Downloads\dubverse-saas\tmp\uploads\6f00aa69-7eeb-4f9c-8921-4f94841a1ce8\segments\seg_4.mp3':
  Metadata:
    encoder         : Lavf60.16.100
  Duration: 00:00:03.89, start: 0.025057, bitrate: 64 kb/s
  Stream #5:0: Audio: mp3, 44100 Hz, mono, fltp, 64 kb/s
Input #6, mp3, from 'C:\Users\fullm\Downloads\dubverse-saas\tmp\uploads\6f00aa69-7eeb-4f9c-8921-4f94841a1ce8\segments\seg_5.mp3':
  Metadata:
    encoder         : Lavf60.16.100
  Duration: 00:00:01.28, start: 0.025057, bitrate: 65 kb/s
  Stream #6:0: Audio: mp3, 44100 Hz, mono, fltp, 64 kb/s
Stream mapping:
  Stream #0:0 (mp3float) -> aformat:default
  Stream #1:0 (mp3float) -> aformat:default
  Stream #2:0 (mp3float) -> aformat:default
  Stream #3:0 (mp3float) -> aformat:default
  Stream #4:0 (mp3float) -> aformat:default
  Stream #5:0 (mp3float) -> aformat:default
  Stream #6:0 (mp3float) -> aformat:default
  loudnorm:default -> Stream #0:0 (libmp3lame)

[2026-03-03T20:12:45.103Z] FFmpeg Err: Output #0, mp3, to 'C:\Users\fullm\Downloads\dubverse-saas\tmp\uploads\6f00aa69-7eeb-4f9c-8921-4f94841a1ce8\dubbed_audio.mp3':
  Metadata:
    major_brand     : mp42
    minor_version   : 0
    compatible_brands: isommp42
    TSSE            : Lavf60.16.100
  Stream #0:0: Audio: mp3, 44100 Hz, stereo, fltp, 192 kb/s
    Metadata:
      encoder         : Lavc60.31.102 libmp3lame

[2026-03-03T20:12:45.106Z] FFmpeg Err: size=       0kB time=-00:00:00.02 bitrate=  -0.0kbits/s speed=N/A    
[2026-03-03T20:12:45.576Z] FFmpeg Err: size=     151kB time=00:00:06.37 bitrate= 193.7kbits/s speed=11.2x    
[2026-03-03T20:12:45.579Z] FFmpeg Err: 
[2026-03-03T20:12:46.093Z] FFmpeg Err: size=     256kB time=00:00:12.27 bitrate= 170.8kbits/s speed=11.3x    
[2026-03-03T20:12:46.180Z] FFmpeg Err: [out#0/mp3 @ 00000219458be440] video:0kB audio:359kB subtitle:0kB other streams:0kB global headers:0kB muxing overhead: 0.207601%
size=     360kB time=00:00:15.38 bitrate= 191.8kbits/s speed=13.1x    

[2026-03-03T20:12:48.441Z] Running FFmpeg: C:\Users\fullm\Downloads\dubverse-saas\backend\node_modules\ffmpeg-static\ffmpeg.exe -i C:\Users\fullm\Downloads\dubverse-saas\tmp\uploads\6f00aa69-7eeb-4f9c-8921-4f94841a1ce8\video.mp4 -i C:\Users\fullm\Downloads\dubverse-saas\tmp\uploads\6f00aa69-7eeb-4f9c-8921-4f94841a1ce8\dubbed_audio.mp3 -map 0:v:0 -map 1:a:0 -c:v copy -c:a aac -b:a 192k -shortest -y C:\Users\fullm\Downloads\dubverse-saas\tmp\uploads\6f00aa69-7eeb-4f9c-8921-4f94841a1ce8\final_dubbed.mp4
[2026-03-03T20:12:48.530Z] FFmpeg Err: Input #0, mov,mp4,m4a,3gp,3g2,mj2, from 'C:\Users\fullm\Downloads\dubverse-saas\tmp\uploads\6f00aa69-7eeb-4f9c-8921-4f94841a1ce8\video.mp4':
  Metadata:
    major_brand     : mp42
    minor_version   : 0
    compatible_brands: isommp42
    creation_time   : 2022-10-02T15:04:51.000000Z
  Duration: 00:00:15.30, start: 0.000000, bitrate: 410 kb/s
  Stream #0:0[0x1](und): Video: h264 (Main) (avc1 / 0x31637661), yuv420p(tv, bt709, progressive), 360x640 [SAR 1:1 DAR 9:16], 278 kb/s, 30 fps, 30 tbr, 15360 tbn (default)

[2026-03-03T20:12:48.534Z] FFmpeg Err:     Metadata:
      creation_time   : 2022-10-02T15:04:51.000000Z
      handler_name    : ISO Media file produced by Google Inc. Created on: 10/02/2022.
      vendor_id       : [0][0][0][0]
  Stream #0:1[0x2](eng): Audio: aac (LC) (mp4a / 0x6134706D), 44100 Hz, stereo, fltp, 127 kb/s (default)
    Metadata:
      creation_time   : 2022-10-02T15:04:51.000000Z
      handler_name    : ISO Media file produced by Google Inc. Created on: 10/02/2022.
      vendor_id       : [0][0][0][0]
Input #1, mp3, from 'C:\Users\fullm\Downloads\dubverse-saas\tmp\uploads\6f00aa69-7eeb-4f9c-8921-4f94841a1ce8\dubbed_audio.mp3':
  Metadata:
    major_brand     : mp42
    minor_version   : 0
    compatible_brands: isommp42
    encoder         : Lavf60.16.100
  Duration: 00:00:15.33, start: 0.025057, bitrate: 192 kb/s
  Stream #1:0: Audio: mp3, 44100 Hz, stereo, fltp, 192 kb/s
    Metadata:
      encoder         : Lavc60.31

[2026-03-03T20:12:48.537Z] FFmpeg Err: Stream mapping:
  Stream #0:0 -> #0:0 (copy)
  Stream #1:0 -> #0:1 (mp3 (mp3float) -> aac (native))

[2026-03-03T20:12:48.544Z] FFmpeg Err: Output #0, mp4, to 'C:\Users\fullm\Downloads\dubverse-saas\tmp\uploads\6f00aa69-7eeb-4f9c-8921-4f94841a1ce8\final_dubbed.mp4':
  Metadata:
    major_brand     : mp42
    minor_version   : 0
    compatible_brands: isommp42
    encoder         : Lavf60.16.100
  Stream #0:0(und): Video: h264 (Main) (avc1 / 0x31637661), yuv420p(tv, bt709, progressive), 360x640 [SAR 1:1 DAR 9:16], q=2-31, 278 kb/s, 30 fps, 30 tbr, 15360 tbn (default)
    Metadata:
      creation_time   : 2022-10-02T15:04:51.000000Z
      handler_name    : ISO Media file produced by Google Inc. Created on: 10/02/2022.
      vendor_id       : [0][0][0][0]
  Stream #0:1: Audio: aac (LC) (mp4a / 0x6134706D), 44100 Hz, stereo, fltp, 192 kb/
[2026-03-03T20:12:48.547Z] FFmpeg Err: s
    Metadata:
      encoder         : Lavc60.31.102 aac
size=       0kB time=N/A bitrate=N/A speed=N/A    
[2026-03-03T20:12:49.036Z] FFmpeg Err: size=     256kB time=00:00:07.40 bitrate= 283.5kbits/s speed=14.8x    
[2026-03-03T20:12:49.539Z] FFmpeg Err: size=     768kB time=00:00:15.10 bitrate= 416.7kbits/s speed=  15x    
[2026-03-03T20:12:49.565Z] FFmpeg Err: [out#0/mp4 @ 00000213a5ebbe00] video:520kB audio:361kB subtitle:0kB other streams:0kB global headers:0kB muxing overhead: 1.765594%
size=     897kB time=00:00:15.27 bitrate= 481.2kbits/s speed=14.8x    

[2026-03-03T20:12:49.567Z] FFmpeg Err: [aac @ 00000213a5d2e940] Qavg: 1093.602

[2026-03-03T20:12:51.232Z] ✅ Pipeline finished successfully!
